<mxfile host="app.diagrams.net" agent="Mozilla/5.0 (X11; CrOS x86_64 14541.0.0) AppleWebKit/537.36 (KHTML, like Gecko) Chrome/128.0.0.0 Safari/537.36" version="24.7.17">
  <diagram name="Page-1" id="oDeOC3xyPV22byp-gJ3_">
    <mxGraphModel dx="1235" dy="1824" grid="1" gridSize="10" guides="1" tooltips="1" connect="1" arrows="1" fold="1" page="1" pageScale="1" pageWidth="827" pageHeight="1169" math="0" shadow="0">
      <root>
        <mxCell id="0" />
        <mxCell id="1" parent="0" />
        <mxCell id="ycPyflKUoSe3m2uMN1iH-16" style="edgeStyle=orthogonalEdgeStyle;rounded=0;orthogonalLoop=1;jettySize=auto;html=1;exitX=1;exitY=0.5;exitDx=0;exitDy=0;entryX=0;entryY=0.376;entryDx=0;entryDy=0;entryPerimeter=0;" parent="1" source="WkfcvWVlkYE60ZRdVaZ3-14" target="WkfcvWVlkYE60ZRdVaZ3-16" edge="1">
          <mxGeometry relative="1" as="geometry" />
        </mxCell>
        <mxCell id="WkfcvWVlkYE60ZRdVaZ3-14" value="" style="ellipse;html=1;shape=startState;fillColor=#000000;strokeColor=#ff0000;" parent="1" vertex="1">
          <mxGeometry x="67" y="-220" width="50" height="50" as="geometry" />
        </mxCell>
        <mxCell id="ycPyflKUoSe3m2uMN1iH-3" style="edgeStyle=orthogonalEdgeStyle;rounded=0;orthogonalLoop=1;jettySize=auto;html=1;entryX=0;entryY=0.5;entryDx=0;entryDy=0;exitX=0.5;exitY=1;exitDx=0;exitDy=0;" parent="1" source="WkfcvWVlkYE60ZRdVaZ3-16" edge="1">
          <mxGeometry relative="1" as="geometry">
            <mxPoint x="297" y="-150" as="sourcePoint" />
            <mxPoint x="677" y="-170" as="targetPoint" />
            <Array as="points">
              <mxPoint x="257" y="-50" />
              <mxPoint x="677" y="-50" />
            </Array>
          </mxGeometry>
        </mxCell>
        <mxCell id="ycPyflKUoSe3m2uMN1iH-25" style="edgeStyle=orthogonalEdgeStyle;rounded=0;orthogonalLoop=1;jettySize=auto;html=1;exitX=0.5;exitY=0;exitDx=0;exitDy=0;entryX=0;entryY=0.5;entryDx=0;entryDy=0;" parent="1" source="WkfcvWVlkYE60ZRdVaZ3-16" target="ycPyflKUoSe3m2uMN1iH-22" edge="1">
          <mxGeometry relative="1" as="geometry" />
        </mxCell>
        <mxCell id="ycPyflKUoSe3m2uMN1iH-29" value="Pres Stop" style="edgeLabel;html=1;align=center;verticalAlign=middle;resizable=0;points=[];" parent="ycPyflKUoSe3m2uMN1iH-25" vertex="1" connectable="0">
          <mxGeometry x="-0.5995" relative="1" as="geometry">
            <mxPoint as="offset" />
          </mxGeometry>
        </mxCell>
        <mxCell id="WkfcvWVlkYE60ZRdVaZ3-16" value="Red" style="rounded=1;whiteSpace=wrap;html=1;arcSize=40;fontColor=#000000;fillColor=#ffffc0;strokeColor=#ff0000;" parent="1" vertex="1">
          <mxGeometry x="197" y="-210" width="120" height="40" as="geometry" />
        </mxCell>
        <mxCell id="ycPyflKUoSe3m2uMN1iH-10" style="edgeStyle=orthogonalEdgeStyle;rounded=0;orthogonalLoop=1;jettySize=auto;html=1;exitX=0;exitY=0.5;exitDx=0;exitDy=0;" parent="1" source="WkfcvWVlkYE60ZRdVaZ3-18" target="WkfcvWVlkYE60ZRdVaZ3-16" edge="1">
          <mxGeometry relative="1" as="geometry" />
        </mxCell>
        <mxCell id="ycPyflKUoSe3m2uMN1iH-11" value="" style="edgeStyle=orthogonalEdgeStyle;rounded=0;orthogonalLoop=1;jettySize=auto;html=1;" parent="1" source="WkfcvWVlkYE60ZRdVaZ3-18" target="WkfcvWVlkYE60ZRdVaZ3-16" edge="1">
          <mxGeometry relative="1" as="geometry" />
        </mxCell>
        <mxCell id="ycPyflKUoSe3m2uMN1iH-24" style="edgeStyle=orthogonalEdgeStyle;rounded=0;orthogonalLoop=1;jettySize=auto;html=1;exitX=0.5;exitY=0;exitDx=0;exitDy=0;entryX=0.5;entryY=1;entryDx=0;entryDy=0;" parent="1" source="WkfcvWVlkYE60ZRdVaZ3-18" target="ycPyflKUoSe3m2uMN1iH-22" edge="1">
          <mxGeometry relative="1" as="geometry" />
        </mxCell>
        <mxCell id="ycPyflKUoSe3m2uMN1iH-30" value="Pres Stop" style="edgeLabel;html=1;align=center;verticalAlign=middle;resizable=0;points=[];" parent="ycPyflKUoSe3m2uMN1iH-24" vertex="1" connectable="0">
          <mxGeometry x="0.2229" y="2" relative="1" as="geometry">
            <mxPoint as="offset" />
          </mxGeometry>
        </mxCell>
        <mxCell id="WkfcvWVlkYE60ZRdVaZ3-18" value="Yellow" style="rounded=1;whiteSpace=wrap;html=1;arcSize=40;fontColor=#000000;fillColor=#ffffc0;strokeColor=#ff0000;" parent="1" vertex="1">
          <mxGeometry x="407" y="-210" width="120" height="40" as="geometry" />
        </mxCell>
        <mxCell id="ycPyflKUoSe3m2uMN1iH-8" style="edgeStyle=orthogonalEdgeStyle;rounded=0;orthogonalLoop=1;jettySize=auto;html=1;" parent="1" source="WkfcvWVlkYE60ZRdVaZ3-21" edge="1">
          <mxGeometry relative="1" as="geometry">
            <mxPoint x="527" y="-191.25" as="targetPoint" />
          </mxGeometry>
        </mxCell>
        <mxCell id="ycPyflKUoSe3m2uMN1iH-26" style="edgeStyle=orthogonalEdgeStyle;rounded=0;orthogonalLoop=1;jettySize=auto;html=1;exitX=0.5;exitY=0;exitDx=0;exitDy=0;entryX=1;entryY=0.5;entryDx=0;entryDy=0;" parent="1" source="WkfcvWVlkYE60ZRdVaZ3-21" target="ycPyflKUoSe3m2uMN1iH-22" edge="1">
          <mxGeometry relative="1" as="geometry" />
        </mxCell>
        <mxCell id="ycPyflKUoSe3m2uMN1iH-31" value="Pres Stop" style="edgeLabel;html=1;align=center;verticalAlign=middle;resizable=0;points=[];" parent="ycPyflKUoSe3m2uMN1iH-26" vertex="1" connectable="0">
          <mxGeometry x="-0.6065" relative="1" as="geometry">
            <mxPoint as="offset" />
          </mxGeometry>
        </mxCell>
        <mxCell id="WkfcvWVlkYE60ZRdVaZ3-21" value="Green" style="rounded=1;whiteSpace=wrap;html=1;arcSize=40;fontColor=#000000;fillColor=#ffffc0;strokeColor=#ff0000;" parent="1" vertex="1">
          <mxGeometry x="627" y="-212.5" width="100" height="42.5" as="geometry" />
        </mxCell>
        <mxCell id="WkfcvWVlkYE60ZRdVaZ3-24" value="" style="ellipse;html=1;shape=endState;fillColor=#000000;strokeColor=#ff0000;" parent="1" vertex="1">
          <mxGeometry x="442" y="-460" width="50" height="50" as="geometry" />
        </mxCell>
        <mxCell id="ycPyflKUoSe3m2uMN1iH-27" style="edgeStyle=orthogonalEdgeStyle;rounded=0;orthogonalLoop=1;jettySize=auto;html=1;exitX=0.5;exitY=0;exitDx=0;exitDy=0;entryX=0.5;entryY=1;entryDx=0;entryDy=0;" parent="1" source="ycPyflKUoSe3m2uMN1iH-22" target="WkfcvWVlkYE60ZRdVaZ3-24" edge="1">
          <mxGeometry relative="1" as="geometry" />
        </mxCell>
        <mxCell id="ycPyflKUoSe3m2uMN1iH-22" value="Stopped" style="rounded=1;whiteSpace=wrap;html=1;arcSize=40;fontColor=#000000;fillColor=#ffffc0;strokeColor=#ff0000;" parent="1" vertex="1">
          <mxGeometry x="407" y="-330" width="120" height="40" as="geometry" />
        </mxCell>
        <mxCell id="OGsPAhq3d1VeWQBeniMe-37" value="Red Light" style="swimlane;fontStyle=2;align=center;verticalAlign=top;childLayout=stackLayout;horizontal=1;startSize=26;horizontalStack=0;resizeParent=1;resizeLast=0;collapsible=1;marginBottom=0;rounded=0;shadow=0;strokeWidth=1;fillColor=#ffe6cc;strokeColor=#d79b00;" vertex="1" parent="1">
          <mxGeometry x="339" y="-1030" width="160" height="90" as="geometry">
            <mxRectangle x="230" y="140" width="160" height="26" as="alternateBounds" />
          </mxGeometry>
        </mxCell>
        <mxCell id="OGsPAhq3d1VeWQBeniMe-38" value="# Color: Red" style="text;align=left;verticalAlign=top;spacingLeft=4;spacingRight=4;overflow=hidden;rotatable=0;points=[[0,0.5],[1,0.5]];portConstraint=eastwest;" vertex="1" parent="OGsPAhq3d1VeWQBeniMe-37">
          <mxGeometry y="26" width="160" height="26" as="geometry" />
        </mxCell>
        <mxCell id="OGsPAhq3d1VeWQBeniMe-39" value="" style="line;html=1;strokeWidth=1;align=left;verticalAlign=middle;spacingTop=-1;spacingLeft=3;spacingRight=3;rotatable=0;labelPosition=right;points=[];portConstraint=eastwest;" vertex="1" parent="OGsPAhq3d1VeWQBeniMe-37">
          <mxGeometry y="52" width="160" height="8" as="geometry" />
        </mxCell>
        <mxCell id="OGsPAhq3d1VeWQBeniMe-40" value="SwitchTo(String lightColor)" style="text;align=left;verticalAlign=top;spacingLeft=4;spacingRight=4;overflow=hidden;rotatable=0;points=[[0,0.5],[1,0.5]];portConstraint=eastwest;fontSize=12;" vertex="1" parent="OGsPAhq3d1VeWQBeniMe-37">
          <mxGeometry y="60" width="160" height="26" as="geometry" />
        </mxCell>
        <mxCell id="OGsPAhq3d1VeWQBeniMe-41" value="Traffic light" style="swimlane;fontStyle=0;align=center;verticalAlign=top;childLayout=stackLayout;horizontal=1;startSize=26;horizontalStack=0;resizeParent=1;resizeLast=0;collapsible=1;marginBottom=0;rounded=0;shadow=0;strokeWidth=1;fillColor=#ffe6cc;strokeColor=#d79b00;" vertex="1" parent="1">
          <mxGeometry x="639" y="-930" width="160" height="90" as="geometry">
            <mxRectangle x="550" y="140" width="160" height="26" as="alternateBounds" />
          </mxGeometry>
        </mxCell>
        <mxCell id="OGsPAhq3d1VeWQBeniMe-42" value="Light state" style="text;align=left;verticalAlign=top;spacingLeft=4;spacingRight=4;overflow=hidden;rotatable=0;points=[[0,0.5],[1,0.5]];portConstraint=eastwest;" vertex="1" parent="OGsPAhq3d1VeWQBeniMe-41">
          <mxGeometry y="26" width="160" height="26" as="geometry" />
        </mxCell>
        <mxCell id="OGsPAhq3d1VeWQBeniMe-43" value="" style="line;html=1;strokeWidth=1;align=left;verticalAlign=middle;spacingTop=-1;spacingLeft=3;spacingRight=3;rotatable=0;labelPosition=right;points=[];portConstraint=eastwest;" vertex="1" parent="OGsPAhq3d1VeWQBeniMe-41">
          <mxGeometry y="52" width="160" height="8" as="geometry" />
        </mxCell>
        <mxCell id="OGsPAhq3d1VeWQBeniMe-44" value="Change light state" style="text;align=left;verticalAlign=top;spacingLeft=4;spacingRight=4;overflow=hidden;rotatable=0;points=[[0,0.5],[1,0.5]];portConstraint=eastwest;" vertex="1" parent="OGsPAhq3d1VeWQBeniMe-41">
          <mxGeometry y="60" width="160" height="26" as="geometry" />
        </mxCell>
        <mxCell id="OGsPAhq3d1VeWQBeniMe-45" value="" style="endArrow=open;shadow=0;strokeWidth=1;rounded=0;curved=0;endFill=1;edgeStyle=elbowEdgeStyle;elbow=vertical;exitX=1;exitY=0.5;exitDx=0;exitDy=0;" edge="1" parent="1" source="OGsPAhq3d1VeWQBeniMe-38" target="OGsPAhq3d1VeWQBeniMe-41">
          <mxGeometry x="0.5" y="41" relative="1" as="geometry">
            <mxPoint x="709" y="-848" as="sourcePoint" />
            <mxPoint x="869" y="-848" as="targetPoint" />
            <mxPoint x="-40" y="32" as="offset" />
            <Array as="points">
              <mxPoint x="719" y="-991" />
            </Array>
          </mxGeometry>
        </mxCell>
        <mxCell id="OGsPAhq3d1VeWQBeniMe-46" value="1" style="resizable=0;align=left;verticalAlign=bottom;labelBackgroundColor=none;fontSize=12;" connectable="0" vertex="1" parent="OGsPAhq3d1VeWQBeniMe-45">
          <mxGeometry x="-1" relative="1" as="geometry">
            <mxPoint y="4" as="offset" />
          </mxGeometry>
        </mxCell>
        <mxCell id="OGsPAhq3d1VeWQBeniMe-47" value="1" style="resizable=0;align=right;verticalAlign=bottom;labelBackgroundColor=none;fontSize=12;" connectable="0" vertex="1" parent="OGsPAhq3d1VeWQBeniMe-45">
          <mxGeometry x="1" relative="1" as="geometry">
            <mxPoint x="-7" y="4" as="offset" />
          </mxGeometry>
        </mxCell>
        <mxCell id="OGsPAhq3d1VeWQBeniMe-48" value="Is part of" style="text;html=1;resizable=0;points=[];;align=center;verticalAlign=middle;labelBackgroundColor=none;rounded=0;shadow=0;strokeWidth=1;fontSize=12;" vertex="1" connectable="0" parent="OGsPAhq3d1VeWQBeniMe-45">
          <mxGeometry x="0.5" y="49" relative="1" as="geometry">
            <mxPoint x="-25" y="40" as="offset" />
          </mxGeometry>
        </mxCell>
        <mxCell id="OGsPAhq3d1VeWQBeniMe-49" value="Class Diagram" style="text;align=center;fontStyle=1;verticalAlign=middle;spacingLeft=3;spacingRight=3;strokeColor=none;rotatable=0;points=[[0,0.5],[1,0.5]];portConstraint=eastwest;html=1;" vertex="1" parent="1">
          <mxGeometry x="30" y="-1070" width="80" height="26" as="geometry" />
        </mxCell>
        <mxCell id="OGsPAhq3d1VeWQBeniMe-50" value="Yellow Light" style="swimlane;fontStyle=2;align=center;verticalAlign=top;childLayout=stackLayout;horizontal=1;startSize=26;horizontalStack=0;resizeParent=1;resizeLast=0;collapsible=1;marginBottom=0;rounded=0;shadow=0;strokeWidth=1;" vertex="1" parent="1">
          <mxGeometry x="339" y="-930" width="160" height="90" as="geometry">
            <mxRectangle x="230" y="140" width="160" height="26" as="alternateBounds" />
          </mxGeometry>
        </mxCell>
        <mxCell id="OGsPAhq3d1VeWQBeniMe-51" value="# Color: Yellow" style="text;align=left;verticalAlign=top;spacingLeft=4;spacingRight=4;overflow=hidden;rotatable=0;points=[[0,0.5],[1,0.5]];portConstraint=eastwest;fillColor=#ffe6cc;strokeColor=#d79b00;" vertex="1" parent="OGsPAhq3d1VeWQBeniMe-50">
          <mxGeometry y="26" width="160" height="26" as="geometry" />
        </mxCell>
        <mxCell id="OGsPAhq3d1VeWQBeniMe-52" value="" style="line;html=1;strokeWidth=1;align=left;verticalAlign=middle;spacingTop=-1;spacingLeft=3;spacingRight=3;rotatable=0;labelPosition=right;points=[];portConstraint=eastwest;" vertex="1" parent="OGsPAhq3d1VeWQBeniMe-50">
          <mxGeometry y="52" width="160" height="8" as="geometry" />
        </mxCell>
        <mxCell id="OGsPAhq3d1VeWQBeniMe-53" value="SwitchTo(String lightColor)" style="text;align=left;verticalAlign=top;spacingLeft=4;spacingRight=4;overflow=hidden;rotatable=0;points=[[0,0.5],[1,0.5]];portConstraint=eastwest;" vertex="1" parent="OGsPAhq3d1VeWQBeniMe-50">
          <mxGeometry y="60" width="160" height="26" as="geometry" />
        </mxCell>
        <mxCell id="OGsPAhq3d1VeWQBeniMe-54" value="Green Light" style="swimlane;fontStyle=2;align=center;verticalAlign=top;childLayout=stackLayout;horizontal=1;startSize=26;horizontalStack=0;resizeParent=1;resizeLast=0;collapsible=1;marginBottom=0;rounded=0;shadow=0;strokeWidth=1;" vertex="1" parent="1">
          <mxGeometry x="339" y="-834" width="160" height="90" as="geometry">
            <mxRectangle x="230" y="140" width="160" height="26" as="alternateBounds" />
          </mxGeometry>
        </mxCell>
        <mxCell id="OGsPAhq3d1VeWQBeniMe-55" value="# Color: Green" style="text;align=left;verticalAlign=top;spacingLeft=4;spacingRight=4;overflow=hidden;rotatable=0;points=[[0,0.5],[1,0.5]];portConstraint=eastwest;" vertex="1" parent="OGsPAhq3d1VeWQBeniMe-54">
          <mxGeometry y="26" width="160" height="26" as="geometry" />
        </mxCell>
        <mxCell id="OGsPAhq3d1VeWQBeniMe-56" value="" style="line;html=1;strokeWidth=1;align=left;verticalAlign=middle;spacingTop=-1;spacingLeft=3;spacingRight=3;rotatable=0;labelPosition=right;points=[];portConstraint=eastwest;fillColor=#ffe6cc;strokeColor=#d79b00;" vertex="1" parent="OGsPAhq3d1VeWQBeniMe-54">
          <mxGeometry y="52" width="160" height="8" as="geometry" />
        </mxCell>
        <mxCell id="OGsPAhq3d1VeWQBeniMe-57" value="SwitchTo(String lightColor)" style="text;align=left;verticalAlign=top;spacingLeft=4;spacingRight=4;overflow=hidden;rotatable=0;points=[[0,0.5],[1,0.5]];portConstraint=eastwest;" vertex="1" parent="OGsPAhq3d1VeWQBeniMe-54">
          <mxGeometry y="60" width="160" height="26" as="geometry" />
        </mxCell>
        <mxCell id="OGsPAhq3d1VeWQBeniMe-58" value="" style="endArrow=open;shadow=0;strokeWidth=1;rounded=0;curved=0;endFill=1;edgeStyle=elbowEdgeStyle;elbow=vertical;exitX=1;exitY=0.5;exitDx=0;exitDy=0;entryX=0;entryY=0.5;entryDx=0;entryDy=0;" edge="1" parent="1" source="OGsPAhq3d1VeWQBeniMe-51" target="OGsPAhq3d1VeWQBeniMe-42">
          <mxGeometry x="0.5" y="41" relative="1" as="geometry">
            <mxPoint x="509" y="-975" as="sourcePoint" />
            <mxPoint x="609" y="-975" as="targetPoint" />
            <mxPoint x="-40" y="32" as="offset" />
          </mxGeometry>
        </mxCell>
        <mxCell id="OGsPAhq3d1VeWQBeniMe-59" value="1" style="resizable=0;align=left;verticalAlign=bottom;labelBackgroundColor=none;fontSize=12;" connectable="0" vertex="1" parent="OGsPAhq3d1VeWQBeniMe-58">
          <mxGeometry x="-1" relative="1" as="geometry">
            <mxPoint y="4" as="offset" />
          </mxGeometry>
        </mxCell>
        <mxCell id="OGsPAhq3d1VeWQBeniMe-60" value="1" style="resizable=0;align=right;verticalAlign=bottom;labelBackgroundColor=none;fontSize=12;" connectable="0" vertex="1" parent="OGsPAhq3d1VeWQBeniMe-58">
          <mxGeometry x="1" relative="1" as="geometry">
            <mxPoint x="-7" y="4" as="offset" />
          </mxGeometry>
        </mxCell>
        <mxCell id="OGsPAhq3d1VeWQBeniMe-61" value="Is part of" style="text;html=1;resizable=0;points=[];;align=center;verticalAlign=middle;labelBackgroundColor=none;rounded=0;shadow=0;strokeWidth=1;fontSize=12;" vertex="1" connectable="0" parent="OGsPAhq3d1VeWQBeniMe-58">
          <mxGeometry x="0.5" y="49" relative="1" as="geometry">
            <mxPoint x="-25" y="40" as="offset" />
          </mxGeometry>
        </mxCell>
        <mxCell id="OGsPAhq3d1VeWQBeniMe-62" value="" style="endArrow=open;shadow=0;strokeWidth=1;rounded=0;curved=0;endFill=1;edgeStyle=elbowEdgeStyle;elbow=vertical;exitX=1;exitY=0.5;exitDx=0;exitDy=0;entryX=0.5;entryY=1;entryDx=0;entryDy=0;" edge="1" parent="1" source="OGsPAhq3d1VeWQBeniMe-55" target="OGsPAhq3d1VeWQBeniMe-41">
          <mxGeometry x="0.5" y="41" relative="1" as="geometry">
            <mxPoint x="519" y="-965" as="sourcePoint" />
            <mxPoint x="619" y="-965" as="targetPoint" />
            <mxPoint x="-40" y="32" as="offset" />
            <Array as="points">
              <mxPoint x="639" y="-790" />
            </Array>
          </mxGeometry>
        </mxCell>
        <mxCell id="OGsPAhq3d1VeWQBeniMe-63" value="1" style="resizable=0;align=left;verticalAlign=bottom;labelBackgroundColor=none;fontSize=12;" connectable="0" vertex="1" parent="OGsPAhq3d1VeWQBeniMe-62">
          <mxGeometry x="-1" relative="1" as="geometry">
            <mxPoint y="4" as="offset" />
          </mxGeometry>
        </mxCell>
        <mxCell id="OGsPAhq3d1VeWQBeniMe-64" value="1" style="resizable=0;align=right;verticalAlign=top;labelBackgroundColor=none;fontSize=12;" connectable="0" vertex="1" parent="OGsPAhq3d1VeWQBeniMe-62">
          <mxGeometry x="1" relative="1" as="geometry">
            <mxPoint x="-7" y="4" as="offset" />
          </mxGeometry>
        </mxCell>
        <mxCell id="OGsPAhq3d1VeWQBeniMe-65" value="Is part of" style="text;html=1;resizable=0;points=[];;align=center;verticalAlign=middle;labelBackgroundColor=none;rounded=0;shadow=0;strokeWidth=1;fontSize=12;" vertex="1" connectable="0" parent="OGsPAhq3d1VeWQBeniMe-62">
          <mxGeometry x="0.5" y="49" relative="1" as="geometry">
            <mxPoint x="-25" y="40" as="offset" />
          </mxGeometry>
        </mxCell>
        <mxCell id="OGsPAhq3d1VeWQBeniMe-77" style="edgeStyle=orthogonalEdgeStyle;rounded=0;orthogonalLoop=1;jettySize=auto;html=1;entryX=-0.018;entryY=1.076;entryDx=0;entryDy=0;entryPerimeter=0;" edge="1" parent="1">
          <mxGeometry relative="1" as="geometry">
            <mxPoint x="336.12" y="-790.0439999999999" as="targetPoint" />
            <mxPoint x="339" y="-983.9967441860465" as="sourcePoint" />
            <Array as="points">
              <mxPoint x="240" y="-984.02" />
              <mxPoint x="240" y="-790.02" />
            </Array>
          </mxGeometry>
        </mxCell>
        <mxCell id="OGsPAhq3d1VeWQBeniMe-104" value="Traffic Light" style="swimlane;whiteSpace=wrap;html=1;" vertex="1" parent="1">
          <mxGeometry x="24" y="-590" width="775" height="920" as="geometry" />
        </mxCell>
        <mxCell id="OGsPAhq3d1VeWQBeniMe-118" value="Green LED" style="swimlane;fontStyle=0;childLayout=stackLayout;horizontal=1;startSize=30;fillColor=none;horizontalStack=0;resizeParent=1;resizeParentMax=0;resizeLast=0;collapsible=1;marginBottom=0;whiteSpace=wrap;html=1;" vertex="1" parent="OGsPAhq3d1VeWQBeniMe-104">
          <mxGeometry x="539" y="670" width="150" height="200" as="geometry" />
        </mxCell>
        <mxCell id="OGsPAhq3d1VeWQBeniMe-119" value="&lt;div style=&quot;font-size: 11px;&quot;&gt;&lt;div&gt;&lt;span class=&quot;hljs-built_in&quot;&gt;do/&lt;/span&gt;&lt;/div&gt;&lt;div&gt;&lt;span style=&quot;font-size: 12px; text-wrap: nowrap; background-color: initial;&quot;&gt;SwitchTo&lt;/span&gt;(red_led, LOW);&lt;br&gt;&lt;span style=&quot;text-wrap: nowrap;&quot;&gt;SwitchTo&lt;/span&gt;(yellow_led, LOW);&lt;br&gt;&lt;span style=&quot;text-wrap: nowrap;&quot;&gt;SwitchTo&lt;/span&gt;(green_led, HIGH);&lt;/div&gt;&lt;/div&gt;" style="text;strokeColor=none;fillColor=none;align=left;verticalAlign=top;spacingLeft=4;spacingRight=4;overflow=hidden;rotatable=0;points=[[0,0.5],[1,0.5]];portConstraint=eastwest;whiteSpace=wrap;html=1;" vertex="1" parent="OGsPAhq3d1VeWQBeniMe-118">
          <mxGeometry y="30" width="150" height="170" as="geometry" />
        </mxCell>
        <mxCell id="OGsPAhq3d1VeWQBeniMe-120" value="Yellow LED" style="swimlane;fontStyle=0;childLayout=stackLayout;horizontal=1;startSize=30;fillColor=none;horizontalStack=0;resizeParent=1;resizeParentMax=0;resizeLast=0;collapsible=1;marginBottom=0;whiteSpace=wrap;html=1;" vertex="1" parent="OGsPAhq3d1VeWQBeniMe-104">
          <mxGeometry x="285" y="670" width="160" height="200" as="geometry" />
        </mxCell>
        <mxCell id="OGsPAhq3d1VeWQBeniMe-121" value="&lt;div style=&quot;font-size: 11px;&quot;&gt;&lt;div&gt;&lt;span class=&quot;hljs-built_in&quot;&gt;do/&lt;/span&gt;&lt;/div&gt;&lt;div&gt;&lt;span style=&quot;font-size: 12px; text-wrap: nowrap; background-color: initial;&quot;&gt;SwitchTo&lt;/span&gt;&lt;span style=&quot;background-color: initial;&quot;&gt;(red_led, LOW);&lt;/span&gt;&lt;/div&gt;&lt;div&gt;&lt;span style=&quot;font-size: 12px; text-wrap: nowrap; background-color: initial;&quot;&gt;SwitchTo&lt;/span&gt;(yellow_led, HIGH);&lt;br&gt;&lt;span style=&quot;font-size: 12px; text-wrap: nowrap;&quot;&gt;SwitchTo&lt;/span&gt;(green_led, LOW);&lt;/div&gt;&lt;/div&gt;" style="text;strokeColor=none;fillColor=none;align=left;verticalAlign=top;spacingLeft=4;spacingRight=4;overflow=hidden;rotatable=0;points=[[0,0.5],[1,0.5]];portConstraint=eastwest;whiteSpace=wrap;html=1;" vertex="1" parent="OGsPAhq3d1VeWQBeniMe-120">
          <mxGeometry y="30" width="160" height="170" as="geometry" />
        </mxCell>
        <mxCell id="OGsPAhq3d1VeWQBeniMe-122" value="Red LED" style="swimlane;fontStyle=0;childLayout=stackLayout;horizontal=1;startSize=30;fillColor=none;horizontalStack=0;resizeParent=1;resizeParentMax=0;resizeLast=0;collapsible=1;marginBottom=0;whiteSpace=wrap;html=1;" vertex="1" parent="OGsPAhq3d1VeWQBeniMe-104">
          <mxGeometry x="29" y="670" width="150" height="200" as="geometry" />
        </mxCell>
        <mxCell id="OGsPAhq3d1VeWQBeniMe-123" value="&lt;div style=&quot;font-size: 11px;&quot;&gt;&lt;span class=&quot;hljs-built_in&quot;&gt;do/&lt;/span&gt;&lt;/div&gt;&lt;div style=&quot;font-size: 11px;&quot;&gt;&lt;span style=&quot;text-wrap: nowrap; background-color: initial; font-size: 12px;&quot;&gt;SwitchTo&lt;/span&gt;(red_led, HIGH);&lt;br&gt;&lt;span style=&quot;text-wrap: nowrap;&quot;&gt;SwitchTo&lt;/span&gt;(yellow_led, LOW);&lt;br&gt;&lt;span style=&quot;font-size: 12px; text-wrap: nowrap;&quot;&gt;SwitchTo&lt;/span&gt;(green_led, LOW);&lt;br&gt;&lt;/div&gt;" style="text;strokeColor=none;fillColor=none;align=left;verticalAlign=top;spacingLeft=4;spacingRight=4;overflow=hidden;rotatable=0;points=[[0,0.5],[1,0.5]];portConstraint=eastwest;whiteSpace=wrap;html=1;" vertex="1" parent="OGsPAhq3d1VeWQBeniMe-122">
          <mxGeometry y="30" width="150" height="170" as="geometry" />
        </mxCell>
        <mxCell id="OGsPAhq3d1VeWQBeniMe-127" value="&lt;span style=&quot;color: rgb(0, 0, 0); font-family: monospace; font-style: normal; font-variant-ligatures: normal; font-variant-caps: normal; font-weight: 400; letter-spacing: normal; orphans: 2; text-align: center; text-indent: 0px; text-transform: none; widows: 2; word-spacing: 0px; -webkit-text-stroke-width: 0px; white-space: normal; background-color: rgb(251, 251, 251); text-decoration-thickness: initial; text-decoration-style: initial; text-decoration-color: initial; float: none; display: inline !important;&quot;&gt;&lt;font style=&quot;font-size: 9px;&quot;&gt;Switches to Green(3 seconds have passed)&lt;/font&gt;&lt;/span&gt;" style="text;whiteSpace=wrap;html=1;" vertex="1" parent="OGsPAhq3d1VeWQBeniMe-104">
          <mxGeometry x="320" y="510" width="240" height="40" as="geometry" />
        </mxCell>
        <mxCell id="OGsPAhq3d1VeWQBeniMe-130" value="&lt;span style=&quot;color: rgb(0, 0, 0); font-family: monospace; font-style: normal; font-variant-ligatures: normal; font-variant-caps: normal; font-weight: 400; letter-spacing: normal; orphans: 2; text-align: center; text-indent: 0px; text-transform: none; widows: 2; word-spacing: 0px; -webkit-text-stroke-width: 0px; white-space: normal; background-color: rgb(251, 251, 251); text-decoration-thickness: initial; text-decoration-style: initial; text-decoration-color: initial; float: none; display: inline !important;&quot;&gt;&lt;font style=&quot;font-size: 6px;&quot;&gt;Switches to Red(1.5 seconds have passed)&lt;/font&gt;&lt;/span&gt;" style="text;whiteSpace=wrap;html=1;" vertex="1" parent="OGsPAhq3d1VeWQBeniMe-104">
          <mxGeometry x="268" y="350" width="152" height="40" as="geometry" />
        </mxCell>
        <mxCell id="OGsPAhq3d1VeWQBeniMe-131" value="&lt;span style=&quot;color: rgb(0, 0, 0); font-family: monospace; font-style: normal; font-variant-ligatures: normal; font-variant-caps: normal; font-weight: 400; letter-spacing: normal; orphans: 2; text-align: center; text-indent: 0px; text-transform: none; widows: 2; word-spacing: 0px; -webkit-text-stroke-width: 0px; white-space: normal; background-color: rgb(251, 251, 251); text-decoration-thickness: initial; text-decoration-style: initial; text-decoration-color: initial; float: none; display: inline !important;&quot;&gt;&lt;font style=&quot;font-size: 6px;&quot;&gt;Switches to Yellow(3 seconds have passed)&lt;/font&gt;&lt;/span&gt;" style="text;whiteSpace=wrap;html=1;" vertex="1" parent="OGsPAhq3d1VeWQBeniMe-104">
          <mxGeometry x="475" y="350" width="155" height="40" as="geometry" />
        </mxCell>
        <mxCell id="OGsPAhq3d1VeWQBeniMe-132" value="&lt;span style=&quot;color: rgb(0, 0, 0); font-family: Helvetica; font-size: 12px; font-style: normal; font-variant-ligatures: normal; font-variant-caps: normal; font-weight: 700; letter-spacing: normal; orphans: 2; text-align: center; text-indent: 0px; text-transform: none; widows: 2; word-spacing: 0px; -webkit-text-stroke-width: 0px; white-space: nowrap; background-color: rgb(251, 251, 251); text-decoration-thickness: initial; text-decoration-style: initial; text-decoration-color: initial; display: inline !important; float: none;&quot;&gt;State Machine Diagram&lt;/span&gt;" style="text;whiteSpace=wrap;html=1;" vertex="1" parent="1">
          <mxGeometry x="30" y="-640" width="120" height="40" as="geometry" />
        </mxCell>
      </root>
    </mxGraphModel>
  </diagram>
</mxfile>
